name new_emg_signals
nRows=60
nColumns=7
 
endheader
time	LGLTMED	LRF	LADDLONG	LST	LTA	LGM
2.0100000000003178	0.91827365768267	0.61297107492166	0.7799759076967293	0.5179451444646747	0.6986324250227596	0.8002799877102601
2.0200000000003158	0.9208387908642373	0.6134683187429023	0.7828922470351976	0.517986367974644	0.6992965303949552	0.8050061856999896
2.030000000000321	0.9234066330955792	0.6140158142210425	0.7858238264221167	0.5180790154557635	0.699982667331735	0.8097654922665936
2.0400000000003224	0.925973135323281	0.6146107588865762	0.7887673228186968	0.5182188683394974	0.700688844955922	0.8145519496349064
2.0500000000003205	0.9285342973383124	0.6152503378059777	0.7917194613702775	0.5184017907800955	0.7014131100441026	0.8193595867478186
2.060000000000322	0.931086179944688	0.6159317296775798	0.7946770198824825	0.5186237379923838	0.7021535494968412	0.8241824335521787
2.0700000000003236	0.9336249167866916	0.616652112884605	0.797636833222451	0.5188807640626348	0.7029082927097078	0.8290145352600741
2.080000000000325	0.9361467257750016	0.6174086714790762	0.8005957976298195	0.5191690292204251	0.7036755138333962	0.8338499665419636
2.0900000000003303	0.9386479200567932	0.6181986010723987	0.803550874921538	0.5194848065621852	0.7044534339123814	0.8386828456074444
2.1000000000003283	0.9411249184802272	0.6190191146109677	0.8064990965742467	0.5198244882196906	0.7052403228934381	0.8435073481294387
2.11000000000033	0.9435742555073832	0.6198674480181572	0.8094375676683838	0.5201845909686924	0.7060345014960435	0.8483177209668121
2.1200000000003314	0.945992590533039	0.6207408656864749	0.8123634706781306	0.5205617612753162	0.7068343429378409	0.8531082956402618
2.1300000000003294	0.9483767165716366	0.6216366658052405	0.815274069091259	0.520952779779724	0.7076382745091837	0.8578735015159082
2.1400000000003345	0.9507235682800996	0.6225521855104756	0.8181667108421022	0.5213545652192814	0.7084447789919434	0.8626078786514707
2.1500000000003325	0.9530302292905188	0.6234848058453264	0.8210388315399841	0.5217641777962355	0.7092523959198498	0.8673060902613268
2.1600000000003376	0.9552939388313106	0.6244319565215964	0.82388795747509	0.52217882199698	0.7100597226794674	0.8719629347588079
2.1700000000003357	0.957512097619052	0.6253911204753568	0.826711708383805	0.5225958488716818	0.7108654154521323	0.8765733573366237
2.1800000000003408	0.9596822730075888	0.6263598382110213	0.8295077999559582	0.523012757784122	0.711668189997989	0.8811324610484282
2.1900000000003423	0.9618022033869325	0.6273357119295846	0.8322740460669265	0.5234271976424507	0.7124668222826409	0.8856355173569779
2.200000000000344	0.963869801830661	0.6283164094374865	0.8350083607191735	0.5238369676224214	0.7132601489470205	0.8900779761167418
2.2100000000003455	0.9658831589967928	0.6292996678333008	0.8377087596803844	0.5242400173955482	0.7140470676210383	0.8944554749614382
2.2200000000003435	0.9678405452901442	0.6302832969692961	0.8403733618091055	0.5246344468764376	0.7148265370815918	0.8987638480692638
2.2300000000003486	0.9697404122974914	0.6312651826847502	0.8430003900624685	0.5250185055053065	0.715597577256614	0.9029991342809492
2.24000000000035	0.9715813935072902	0.6322432898074716	0.8455881721843278	0.5253905910844098	0.7163592690772245	0.907157584547652
2.2500000000003517	0.9733623043282138	0.6332156649193952	0.8481351410755191	0.5257492481890135	0.7171107541803281	0.9112356686875086
2.2600000000003533	0.9750821414221094	0.6341804388816555	0.8506398348515118	0.5260931661747348	0.717851234464603	0.9152300814309374
2.2700000000003584	0.9767400813692916	0.6351358291136417	0.8531008965967499	0.5264211768032043	0.7185799715024501	0.9191377477373794
2.2800000000003564	0.9783354786874184	0.6360801416207622	0.8555170738290522	0.5267322515073427	0.7192962858115262	0.9229558273686956
2.2900000000003615	0.9798678632277028	0.6370117727660201	0.8578872176902892	0.5270254983171593	0.7199995559893373	0.9266817187083024
2.3000000000003595	0.981336936974576	0.6379292107816441	0.860210281881271	0.5273001584667434	0.7206892177149893	0.9303130618183608
2.310000000000361	0.9827425702770308	0.638831037018152	0.8624853213588515	0.5275556027027664	0.7213647626215646	0.9338477407302516
2.3200000000003627	0.9840847975422594	0.6397159269290101	0.8647114908126938	0.5277913273153026	0.722025737042654	0.9372838849659316
2.3300000000003642	0.9853638124255027	0.6405826507898938	0.8668880429384982	0.5280069499110459	0.722671740636735	0.940619870290162
2.340000000000366	0.9865799625527144	0.6414300741520927	0.86901432652354	0.5282022049493316	0.7233024248943778	0.9438543186952658
2.3500000000003674	0.9877337438163568	0.6422571580304328	0.8710897843595352	0.5283769390603734	0.7239174915348541	0.94698609762148
2.360000000000369	0.9888257942862306	0.6430629588269972	0.8731139509965268	0.5285311061651318	0.7245166908009092	0.9500143184181224
2.3700000000003705	0.9898568877785224	0.6438466279929261	0.875086450350903	0.528664762415727	0.7250998196626943	0.9529383340540716
2.380000000000372	0.9908279271257768	0.6446074114319488	0.8770069931805996	0.5287780609759967	0.7256667199436188	0.955757736091132
2.3900000000003736	0.9917399371897104	0.6453446486506668	0.8788753744419388	0.5288712466624238	0.7262172763815808	0.9584723509392395
2.4000000000003716	0.992594057657144	0.6460577716624853	0.8806914705437303	0.5289446504663924	0.7267514146389483	0.9610822354160784
2.4100000000003767	0.993391535658242	0.6467463036529285	0.8824552365157171	0.52899868397929	0.7272690992736922	0.9635876716359622
2.4200000000003783	0.9941337182446012	0.6474098574147727	0.8841667031093563	0.5290338337415676	0.7277703316831903	0.965989161253063
2.43000000000038	0.9948220447625904	0.6480481335615734	0.8858259738498308	0.5290506555364273	0.728255148031394	0.9682874190839884
2.4400000000003814	0.995458039155895	0.6486609185274986	0.8874332220578108	0.5290497686481417	0.7287236171696763	0.9704833661343092
2.4500000000003865	0.996043302228377	0.6492480823607595	0.88898868785927	0.5290318501039732	0.7291758385608161	0.9725781220547768
2.4600000000003845	0.9965795038962624	0.6498095763168044	0.8904926752001544	0.5289976289182283	0.7296119402156558	0.9745729970554576
2.470000000000386	0.9970683754559272	0.6503454302572567	0.8919455488817292	0.5289478803560851	0.7300320766518434	0.9764694833107904
2.4800000000003877	0.9975117018908644	0.650855749861301	0.893347731630242	0.5288834202347732	0.7304364268841029	0.978269245892876
2.4900000000003892	0.9979113142387718	0.6513407136572573	0.894699701213103	0.5288050992796363	0.7308251924549173	0.9799741132729034
2.500000000000391	0.998269082036439	0.6518005698835166	0.8960019876118391	0.5287137975531099	0.73119859551376	0.9815860674304197
2.5100000000003924	0.998586905858578	0.6522356331883427	0.8972551702605558	0.5286104189744583	0.7315568769514296	0.9831072336104238
2.5200000000003975	0.9988667099659232	0.6526462811781806	0.898459875357167	0.5284958859478638	0.731900294595163	0.984539869768465
2.5300000000003955	0.9991104350802902	0.6530329508241417	0.8996167732528615	0.5283711341160036	0.7322291214688516	0.985886355746032
2.5400000000004006	0.9993200313080274	0.6533961347366406	0.9007265759239098	0.5282371072556985	0.7325436441219714	0.9871491822197102
2.550000000000402	0.9994974512351364	0.6537363773193404	0.9017900345282897	0.5280947523320111	0.7328441610298286	0.9883309394697024
2.5600000000004	0.9996446432186624	0.6540542708145461	0.9028079370478596	0.527945014726229	0.7331309810668983	0.9894343060143728
2.5700000000004017	0.9997635448966716	0.6543504512539879	0.9037811060152806	0.5277888336524994	0.7334044220552269	0.9904620371593708
2.5800000000003998	0.9998560769368589	0.6546255943302718	0.9047103963234056	0.5276271377767522	0.7336648093899627	0.9914169535107928
2.590000000000405	0.9999241370407892	0.6548804112060641	0.9055966931137156	0.5274608410502402	0.733912474745568	0.9923019295023112
2.6000000000004064	0.999969594218074	0.6551156442796257	0.9064409097400006	0.5272908387685372	0.7341477548665816	0.9931198819862253
